<svg xmlns="http://www.w3.org/2000/svg" viewBox="0 0 512 512" width="100%" height="100%">
  <path d="M 215.0,77.0 L 245.0,77.0 L 246.0,78.0 L 252.0,78.0 L 253.0,79.0 L 263.0,80.0 L 264.0,81.0 L 271.0,82.0 L 275.0,84.0 L 278.0,84.0 L 284.0,87.0 L 286.0,87.0 L 289.0,89.0 L 291.0,89.0 L 305.0,96.0 L 307.0,98.0 L 310.0,99.0 L 312.0,101.0 L 315.0,102.0 L 318.0,105.0 L 322.0,107.0 L 333.0,117.0 L 334.0,117.0 L 349.0,133.0 L 349.0,134.0 L 355.0,141.0 L 355.0,142.0 L 361.0,150.0 L 362.0,153.0 L 364.0,155.0 L 370.0,167.0 L 370.0,169.0 L 372.0,172.0 L 372.0,174.0 L 374.0,177.0 L 375.0,182.0 L 377.0,186.0 L 377.0,189.0 L 379.0,193.0 L 379.0,197.0 L 380.0,198.0 L 380.0,202.0 L 381.0,203.0 L 381.0,208.0 L 382.0,209.0 L 382.0,216.0 L 383.0,217.0 L 382.0,218.0 L 383.0,219.0 L 383.0,241.0 L 382.0,242.0 L 383.0,243.0 L 382.0,244.0 L 382.0,251.0 L 381.0,252.0 L 380.0,262.0 L 379.0,263.0 L 379.0,266.0 L 378.0,267.0 L 378.0,270.0 L 377.0,271.0 L 377.0,274.0 L 376.0,275.0 L 374.0,283.0 L 372.0,286.0 L 372.0,288.0 L 369.0,293.0 L 369.0,295.0 L 366.0,301.0 L 364.0,303.0 L 359.0,313.0 L 355.0,318.0 L 355.0,320.0 L 435.0,400.0 L 436.0,400.0 L 441.0,406.0 L 443.0,410.0 L 443.0,412.0 L 444.0,413.0 L 444.0,417.0 L 445.0,418.0 L 444.0,419.0 L 445.0,421.0 L 444.0,422.0 L 444.0,426.0 L 443.0,427.0 L 443.0,429.0 L 441.0,433.0 L 433.0,441.0 L 429.0,443.0 L 427.0,443.0 L 426.0,444.0 L 422.0,444.0 L 421.0,445.0 L 419.0,444.0 L 418.0,445.0 L 417.0,444.0 L 413.0,444.0 L 412.0,443.0 L 410.0,443.0 L 403.0,439.0 L 400.0,436.0 L 400.0,435.0 L 320.0,355.0 L 318.0,355.0 L 313.0,359.0 L 303.0,364.0 L 301.0,366.0 L 295.0,369.0 L 293.0,369.0 L 288.0,372.0 L 283.0,373.0 L 280.0,375.0 L 275.0,376.0 L 274.0,377.0 L 271.0,377.0 L 270.0,378.0 L 267.0,378.0 L 266.0,379.0 L 263.0,379.0 L 262.0,380.0 L 258.0,380.0 L 257.0,381.0 L 252.0,381.0 L 251.0,382.0 L 244.0,382.0 L 243.0,383.0 L 242.0,382.0 L 241.0,383.0 L 219.0,383.0 L 218.0,382.0 L 217.0,383.0 L 216.0,382.0 L 209.0,382.0 L 208.0,381.0 L 203.0,381.0 L 202.0,380.0 L 198.0,380.0 L 197.0,379.0 L 193.0,379.0 L 189.0,377.0 L 186.0,377.0 L 185.0,376.0 L 177.0,374.0 L 169.0,370.0 L 167.0,370.0 L 155.0,364.0 L 153.0,362.0 L 150.0,361.0 L 145.0,357.0 L 141.0,355.0 L 134.0,349.0 L 133.0,349.0 L 127.0,343.0 L 126.0,343.0 L 111.0,327.0 L 111.0,326.0 L 107.0,322.0 L 105.0,318.0 L 102.0,315.0 L 101.0,312.0 L 96.0,305.0 L 89.0,291.0 L 89.0,289.0 L 87.0,286.0 L 86.0,281.0 L 84.0,278.0 L 84.0,275.0 L 82.0,271.0 L 81.0,264.0 L 80.0,263.0 L 79.0,253.0 L 78.0,252.0 L 78.0,246.0 L 77.0,245.0 L 77.0,216.0 L 78.0,215.0 L 78.0,207.0 L 79.0,206.0 L 79.0,201.0 L 80.0,200.0 L 80.0,197.0 L 81.0,196.0 L 81.0,192.0 L 83.0,188.0 L 83.0,185.0 L 84.0,184.0 L 85.0,179.0 L 87.0,176.0 L 88.0,171.0 L 97.0,153.0 L 99.0,151.0 L 100.0,148.0 L 104.0,143.0 L 104.0,142.0 L 110.0,135.0 L 110.0,134.0 L 115.0,129.0 L 115.0,128.0 L 128.0,115.0 L 129.0,115.0 L 134.0,110.0 L 135.0,110.0 L 138.0,107.0 L 139.0,107.0 L 142.0,104.0 L 146.0,102.0 L 148.0,100.0 L 151.0,99.0 L 153.0,97.0 L 169.0,89.0 L 171.0,89.0 L 174.0,87.0 L 176.0,87.0 L 179.0,85.0 L 184.0,84.0 L 185.0,83.0 L 188.0,83.0 L 192.0,81.0 L 200.0,80.0 L 201.0,79.0 L 206.0,79.0 L 207.0,78.0 L 214.0,78.0 L 215.0,77.0 Z M 217.0,117.0 L 215.0,118.0 L 209.0,118.0 L 208.0,119.0 L 204.0,119.0 L 200.0,121.0 L 197.0,121.0 L 196.0,122.0 L 191.0,123.0 L 188.0,125.0 L 186.0,125.0 L 172.0,132.0 L 167.0,136.0 L 163.0,138.0 L 160.0,141.0 L 159.0,141.0 L 142.0,158.0 L 142.0,159.0 L 138.0,163.0 L 138.0,164.0 L 132.0,172.0 L 125.0,186.0 L 125.0,188.0 L 123.0,191.0 L 122.0,196.0 L 120.0,200.0 L 119.0,208.0 L 118.0,209.0 L 118.0,214.0 L 117.0,215.0 L 117.0,225.0 L 116.0,226.0 L 117.0,227.0 L 117.0,233.0 L 116.0,234.0 L 117.0,235.0 L 117.0,244.0 L 118.0,245.0 L 118.0,250.0 L 119.0,251.0 L 119.0,255.0 L 120.0,256.0 L 120.0,259.0 L 121.0,260.0 L 121.0,263.0 L 124.0,269.0 L 125.0,274.0 L 131.0,286.0 L 133.0,288.0 L 136.0,294.0 L 143.0,302.0 L 143.0,303.0 L 157.0,317.0 L 158.0,317.0 L 162.0,321.0 L 163.0,321.0 L 166.0,324.0 L 169.0,325.0 L 171.0,327.0 L 174.0,328.0 L 176.0,330.0 L 182.0,333.0 L 184.0,333.0 L 189.0,336.0 L 194.0,337.0 L 198.0,339.0 L 201.0,339.0 L 202.0,340.0 L 205.0,340.0 L 206.0,341.0 L 210.0,341.0 L 211.0,342.0 L 217.0,342.0 L 218.0,343.0 L 242.0,343.0 L 243.0,342.0 L 249.0,342.0 L 250.0,341.0 L 254.0,341.0 L 255.0,340.0 L 258.0,340.0 L 259.0,339.0 L 262.0,339.0 L 263.0,338.0 L 271.0,336.0 L 289.0,327.0 L 297.0,321.0 L 298.0,314.0 L 301.0,308.0 L 308.0,301.0 L 314.0,298.0 L 321.0,297.0 L 323.0,295.0 L 325.0,291.0 L 327.0,289.0 L 336.0,271.0 L 337.0,266.0 L 339.0,262.0 L 339.0,259.0 L 340.0,258.0 L 340.0,255.0 L 341.0,254.0 L 341.0,250.0 L 342.0,249.0 L 342.0,244.0 L 343.0,243.0 L 343.0,218.0 L 342.0,217.0 L 342.0,211.0 L 341.0,210.0 L 341.0,206.0 L 340.0,205.0 L 340.0,202.0 L 339.0,201.0 L 339.0,198.0 L 338.0,197.0 L 336.0,189.0 L 334.0,186.0 L 334.0,184.0 L 330.0,176.0 L 328.0,174.0 L 327.0,171.0 L 323.0,166.0 L 321.0,162.0 L 317.0,158.0 L 317.0,157.0 L 303.0,143.0 L 302.0,143.0 L 294.0,136.0 L 288.0,133.0 L 286.0,131.0 L 276.0,126.0 L 274.0,126.0 L 271.0,124.0 L 269.0,124.0 L 263.0,121.0 L 260.0,121.0 L 259.0,120.0 L 256.0,120.0 L 255.0,119.0 L 251.0,119.0 L 250.0,118.0 L 245.0,118.0 L 244.0,117.0 L 217.0,117.0 Z M 241.0,159.0 L 250.0,159.0 L 254.0,161.0 L 258.0,165.0 L 259.0,168.0 L 261.0,170.0 L 262.0,169.0 L 269.0,169.0 L 270.0,170.0 L 274.0,171.0 L 278.0,175.0 L 278.0,176.0 L 281.0,179.0 L 281.0,180.0 L 289.0,189.0 L 289.0,190.0 L 292.0,193.0 L 292.0,194.0 L 296.0,198.0 L 296.0,199.0 L 299.0,202.0 L 299.0,203.0 L 307.0,212.0 L 307.0,213.0 L 310.0,216.0 L 310.0,217.0 L 314.0,221.0 L 316.0,225.0 L 316.0,228.0 L 317.0,229.0 L 316.0,230.0 L 317.0,231.0 L 316.0,232.0 L 316.0,235.0 L 313.0,239.0 L 313.0,240.0 L 309.0,244.0 L 309.0,245.0 L 306.0,248.0 L 306.0,249.0 L 302.0,253.0 L 302.0,254.0 L 299.0,257.0 L 299.0,258.0 L 291.0,267.0 L 291.0,268.0 L 288.0,271.0 L 288.0,272.0 L 284.0,276.0 L 284.0,277.0 L 276.0,287.0 L 268.0,291.0 L 264.0,291.0 L 263.0,290.0 L 260.0,290.0 L 258.0,289.0 L 252.0,283.0 L 252.0,281.0 L 251.0,280.0 L 251.0,272.0 L 252.0,271.0 L 252.0,269.0 L 258.0,262.0 L 258.0,261.0 L 262.0,257.0 L 262.0,256.0 L 265.0,253.0 L 265.0,252.0 L 269.0,248.0 L 269.0,247.0 L 273.0,243.0 L 273.0,242.0 L 276.0,239.0 L 276.0,238.0 L 283.0,230.0 L 277.0,223.0 L 277.0,222.0 L 273.0,218.0 L 273.0,217.0 L 270.0,214.0 L 270.0,213.0 L 266.0,209.0 L 266.0,208.0 L 263.0,205.0 L 263.0,204.0 L 255.0,195.0 L 254.0,196.0 L 254.0,199.0 L 253.0,200.0 L 253.0,203.0 L 251.0,207.0 L 250.0,214.0 L 248.0,218.0 L 247.0,225.0 L 245.0,229.0 L 244.0,236.0 L 242.0,240.0 L 241.0,247.0 L 239.0,251.0 L 238.0,258.0 L 236.0,262.0 L 235.0,269.0 L 234.0,270.0 L 233.0,276.0 L 231.0,280.0 L 231.0,283.0 L 230.0,284.0 L 230.0,287.0 L 229.0,288.0 L 229.0,291.0 L 227.0,295.0 L 223.0,299.0 L 219.0,300.0 L 218.0,301.0 L 211.0,301.0 L 205.0,298.0 L 201.0,293.0 L 201.0,291.0 L 200.0,290.0 L 192.0,291.0 L 191.0,290.0 L 189.0,290.0 L 185.0,288.0 L 182.0,285.0 L 182.0,284.0 L 179.0,281.0 L 179.0,280.0 L 171.0,271.0 L 171.0,270.0 L 168.0,267.0 L 168.0,266.0 L 164.0,262.0 L 164.0,261.0 L 161.0,258.0 L 161.0,257.0 L 153.0,248.0 L 153.0,247.0 L 150.0,244.0 L 150.0,243.0 L 146.0,239.0 L 144.0,235.0 L 144.0,233.0 L 143.0,232.0 L 143.0,228.0 L 144.0,227.0 L 144.0,224.0 L 145.0,222.0 L 149.0,218.0 L 149.0,217.0 L 152.0,214.0 L 152.0,213.0 L 156.0,209.0 L 156.0,208.0 L 160.0,204.0 L 160.0,203.0 L 167.0,195.0 L 167.0,194.0 L 170.0,191.0 L 170.0,190.0 L 178.0,181.0 L 178.0,180.0 L 181.0,177.0 L 181.0,176.0 L 186.0,171.0 L 190.0,170.0 L 191.0,169.0 L 198.0,169.0 L 202.0,171.0 L 207.0,176.0 L 209.0,180.0 L 209.0,187.0 L 208.0,188.0 L 208.0,190.0 L 204.0,195.0 L 204.0,196.0 L 196.0,205.0 L 196.0,206.0 L 193.0,209.0 L 193.0,210.0 L 189.0,214.0 L 189.0,215.0 L 186.0,218.0 L 186.0,219.0 L 182.0,223.0 L 182.0,224.0 L 178.0,228.0 L 177.0,230.0 L 183.0,237.0 L 183.0,238.0 L 187.0,242.0 L 187.0,243.0 L 190.0,246.0 L 190.0,247.0 L 194.0,251.0 L 194.0,252.0 L 197.0,255.0 L 197.0,256.0 L 201.0,260.0 L 201.0,261.0 L 204.0,264.0 L 205.0,264.0 L 206.0,263.0 L 207.0,256.0 L 209.0,252.0 L 210.0,245.0 L 212.0,241.0 L 213.0,234.0 L 215.0,230.0 L 215.0,227.0 L 216.0,226.0 L 216.0,223.0 L 217.0,222.0 L 217.0,219.0 L 219.0,215.0 L 220.0,208.0 L 222.0,204.0 L 223.0,197.0 L 224.0,196.0 L 225.0,190.0 L 227.0,186.0 L 227.0,183.0 L 228.0,182.0 L 228.0,179.0 L 230.0,175.0 L 231.0,169.0 L 233.0,165.0 L 237.0,161.0 L 241.0,159.0 Z " fill="#2563eb" fill-rule="evenodd"/>
</svg>